<mxfile host="app.diagrams.net" modified="2024-05-14T17:29:39.509Z" agent="Mozilla/5.0 (Windows NT 10.0; Win64; x64) AppleWebKit/537.36 (KHTML, like Gecko) Chrome/124.0.0.0 Safari/537.36" version="24.4.0" etag="qwhqkqf_j0dBfSZTFgMC" type="github">
  <diagram name="PÃ¡gina-1" id="sKDlROKK4ZJsEF1Uz4YV">
    <mxGraphModel>
      <root>
        <mxCell id="0" />
        <mxCell id="1" parent="0" />
      </root>
    </mxGraphModel>
  </diagram>
</mxfile>
